<svg width="19" height="33" viewBox="0 0 19 33" fill="none" xmlns="http://www.w3.org/2000/svg">
<path d="M18.5526 0.917573C18.5526 0.413126 18.173 0.0108449 17.7104 0.0108449H13.4933C9.07465 -0.225415 5.30837 3.42704 5.05926 8.18417V13.0882H0.842222C0.373662 13.0882 0 13.4968 0 13.9949V18.7073C0 19.2118 0.379593 19.6141 0.842222 19.6141H5.05926V31.7783C5.05926 32.2763 5.43886 32.685 5.90149 32.685H10.9607C11.4293 32.685 11.803 32.2763 11.803 31.7783V19.6204H16.2217C16.6072 19.6268 16.9453 19.3522 17.0461 18.95L18.262 14.2312C18.3806 13.7459 18.1137 13.2478 17.6689 13.1201L17.4553 13.0882H11.803V8.18417C11.8919 7.2519 12.6215 6.54312 13.4874 6.5495H17.7045C18.173 6.5495 18.5467 6.14084 18.5467 5.64278V0.917573H18.5526Z" fill="#EC9E85"/>
</svg>
