<?xml version="1.0" encoding="utf-8"?>
<!-- Generator: Adobe Illustrator 24.0.1, SVG Export Plug-In . SVG Version: 6.00 Build 0)  -->
<svg version="1.1" id="Layer_1" xmlns="http://www.w3.org/2000/svg" xmlns:xlink="http://www.w3.org/1999/xlink" x="0px" y="0px"
	 viewBox="0 0 19.38 15.99" xml:space="preserve">
<style type="text/css">
	.st0{fill:#222222;}
</style>
<path class="st0" d="M18.89,2.5c-0.66-1.19-1.51-1.89-2.47-2.2c-0.95-0.31-1.93-0.21-2.85,0.08C12,0.88,10.54,2.01,9.62,2.97
	C8.67,1.99,7.12,0.82,5.5,0.29C4.56-0.02,3.55-0.13,2.62,0.2C1.67,0.53,0.87,1.29,0.33,2.54C-0.17,3.68-0.06,4.95,0.38,6.2
	c0.44,1.25,1.23,2.52,2.2,3.73c1.92,2.4,4.58,4.63,6.74,5.97c0.01,0.01,0.02,0.01,0.02,0.02c0.01,0,0.01,0.01,0.02,0.01
	c0.01,0.01,0.03,0.01,0.04,0.01c0.04,0.02,0.08,0.04,0.13,0.05c0.03,0.01,0.06,0,0.09,0c0.03,0,0.06,0,0.09,0
	c0.05-0.01,0.09-0.03,0.13-0.05c0.01-0.01,0.03-0.01,0.04-0.01c0.01,0,0.01-0.01,0.02-0.01c0.01-0.01,0.02-0.01,0.02-0.02
	c2.16-1.33,4.94-3.56,6.92-5.96c1-1.21,1.81-2.49,2.23-3.75C19.5,4.93,19.53,3.64,18.89,2.5z M18.13,5.88
	c-0.37,1.1-1.1,2.27-2.06,3.43c-1.83,2.22-4.4,4.3-6.45,5.6c-2.04-1.3-4.49-3.37-6.26-5.59C2.43,8.15,1.71,6.97,1.32,5.87
	C0.93,4.76,0.89,3.77,1.25,2.94c0.46-1.05,1.06-1.57,1.7-1.8c0.65-0.23,1.42-0.17,2.24,0.1c1.64,0.54,3.28,1.87,4.05,2.8
	c0.01,0.01,0.01,0.01,0.02,0.02C9.27,4.07,9.28,4.09,9.3,4.11c0.02,0.02,0.04,0.02,0.06,0.03C9.38,4.15,9.4,4.17,9.43,4.18
	c0.03,0.01,0.07,0.02,0.1,0.03c0.03,0.01,0.06,0.01,0.09,0.01c0.03,0,0.06,0,0.09-0.01c0.04-0.01,0.07-0.02,0.1-0.03
	c0.02-0.01,0.04-0.02,0.06-0.03C9.9,4.13,9.92,4.12,9.94,4.11c0.02-0.01,0.02-0.03,0.04-0.05C9.99,4.05,10,4.05,10,4.04
	c0.78-0.93,2.3-2.21,3.88-2.72c0.78-0.25,1.54-0.31,2.23-0.08c0.67,0.22,1.34,0.73,1.91,1.74C18.48,3.81,18.49,4.79,18.13,5.88z"/>
</svg>
