<svg width="31" height="33" viewBox="0 0 31 33" fill="none" xmlns="http://www.w3.org/2000/svg">
<path d="M21.3213 0H9.04617C4.05215 0.0063854 0.00593114 4.36442 0 9.74028V22.9542C0.00593114 28.3307 4.05393 32.6881 9.04736 32.6932H21.3224C26.3165 32.6868 30.3627 28.3288 30.3686 22.9529V9.73901C30.3627 4.3625 26.3153 0.00510832 21.3213 0ZM27.3135 22.9529C27.3135 26.5173 24.6308 29.4054 21.3213 29.4054H9.04617C5.7366 29.4035 3.05572 26.516 3.05572 22.9529V9.73901C3.05572 6.17595 5.73838 3.28784 9.04795 3.28784H21.323C24.6326 3.28976 27.3135 6.17723 27.3135 9.74028V22.9542V22.9529Z" fill="#EC9E85"/>
<path d="M15.1837 7.89062C10.8492 7.89701 7.33796 11.6791 7.33203 16.3437C7.33678 21.0114 10.8492 24.7935 15.1855 24.7999C19.5211 24.7948 23.0359 21.0114 23.0401 16.3437C23.0324 11.6772 19.5199 7.8951 15.1837 7.8919V7.89062ZM15.1837 21.5127C12.5336 21.5146 10.3842 19.2005 10.3842 16.3475C10.3824 13.4945 12.5307 11.1804 15.1819 11.1804H15.1837C17.8337 11.1804 19.9814 13.4945 19.9814 16.3475C19.9814 19.2005 17.8337 21.5127 15.1837 21.5127Z" fill="#EC9E85"/>
<path d="M23.0531 5.92969C24.0928 5.92969 24.935 6.8364 24.935 7.95446C24.935 9.07379 24.0928 9.9805 23.0531 9.9805C22.0146 9.9805 21.1711 9.07379 21.1711 7.95446C21.1711 6.8364 22.0146 5.92969 23.0531 5.92969Z" fill="#EC9E85"/>
</svg>
