<svg width="160" height="58" viewBox="0 0 160 58" fill="none" xmlns="http://www.w3.org/2000/svg">
<g clip-path="url(#clip0_1483_410)">
<path d="M75.8951 58V22.6423C75.8951 13.9423 74.5655 11.0423 69.8013 11.0423C67.4132 11.0527 65.0607 11.6257 62.9319 12.7154C63.164 14.4155 63.2751 16.1301 63.2643 17.8462V58H41.1052V22.6423C41.1052 13.9423 39.7756 11.0423 35.0114 11.0423C32.7523 11.0292 30.5189 11.5246 28.4745 12.4923V58H6.31537V15.5038L0 10.0385L28.4745 0V11.1538C37.4489 3.90385 43.3211 0.557692 49.5256 0.557692C57.0597 0.557692 61.27 4.34999 62.7103 11.6C72.0172 4.01538 78.0001 0.557692 84.3155 0.557692C93.7331 0.557692 98.0542 6.46923 98.0542 17.8462V58H75.8951Z" fill="#D58778"/>
<path d="M160 54.4307H115.682V57.9999H160" fill="#D58778"/>
</g>
<defs>
<clipPath id="clip0_1483_410">
<rect width="160" height="58" fill="white"/>
</clipPath>
</defs>
</svg>
