<?xml version="1.0" encoding="utf-8"?>
<!-- Generator: Adobe Illustrator 24.0.1, SVG Export Plug-In . SVG Version: 6.00 Build 0)  -->
<svg version="1.1" id="Layer_1" xmlns="http://www.w3.org/2000/svg" xmlns:xlink="http://www.w3.org/1999/xlink" x="0px" y="0px"
	 viewBox="0 0 159 39" style="enable-background:new 0 0 159 39;" xml:space="preserve">
<style type="text/css">
	.st0{clip-path:url(#SVGID_2_);}
	.st1{fill:#D58778}
</style>
<g>
	<defs>
		<rect id="SVGID_1_" width="159" height="39"/>
	</defs>
	<clipPath id="SVGID_2_">
		<use xlink:href="#SVGID_1_"  style="overflow:visible;"/>
	</clipPath>
	<g class="st0">
		<path class="st1" d="M29.41,32.17v-13.6c0-3.35-0.52-4.46-2.36-4.46c-0.93,0-1.84,0.22-2.66,0.64c0.09,0.65,0.13,1.31,0.13,1.97
			v15.44h-8.59v-13.6c0-3.35-0.52-4.46-2.36-4.46c-0.88-0.01-1.74,0.18-2.53,0.56v17.5H2.45V15.83L0,13.73l11.03-3.86v4.29
			c3.48-2.79,5.75-4.07,8.16-4.07c2.92,0,4.55,1.46,5.11,4.25c3.61-2.92,5.93-4.25,8.37-4.25c3.65,0,5.32,2.27,5.32,6.65v15.44
			L29.41,32.17z"/>
		<path class="st1" d="M52.9,32.17v-2.44c-2.02,1.72-4.29,2.87-6.66,2.87c-2.79,0-4.68-1.59-4.68-4.29c0-3.95,4.21-6.56,11.34-7.33
			c0-4.72-1.89-7.08-5.15-7.08c-1.93,0-3.26,0.51-4.72,1.63l-0.21-0.21c2.92-3.26,6.1-5.02,10.39-5.02c5.41,0,8.29,3.09,8.29,9.31
			v12.57L52.9,32.17z M52.9,29.12v-7.59c-2.58,0.73-3.56,2.36-3.56,4.63c0,2.02,0.86,3.09,2.58,3.09
			C52.24,29.24,52.58,29.2,52.9,29.12z"/>
		<path class="st1" d="M111.81,28.31c-1.8,2.75-4.68,4.29-8.67,4.29c-6.05,0-11.03-4.2-11.03-10.85c0-6.26,4.21-11.45,11.08-11.45
			c4.04,0,6.83,2.36,6.83,5.49c0,3.56-2.75,6.69-7.9,8.62c2.45,2.4,5.54,3.99,8.42,3.99c0.42,0,0.84-0.04,1.24-0.13L111.81,28.31z
			 M97.43,14.33c0,3.56,1.85,7.16,4.42,9.82c1.2-1.54,1.67-3.26,1.67-5.45c0-3.73-2.49-6.91-4.34-6.91
			C98.07,11.8,97.43,12.74,97.43,14.33z"/>
		<path class="st1" d="M113.31,31.48l1.33-6.99h0.04l5.33,7.12c0.46,0.15,0.94,0.22,1.42,0.21c1.89,0,3.18-0.99,3.18-2.75
			c0-1.29-0.77-2.02-2.58-2.96l-2.83-1.5c-3.56-1.89-5.28-3.9-5.28-7.16c0-4.33,3.52-7.16,9.23-7.16c2.43-0.02,4.85,0.4,7.13,1.24
			l-1.67,6.78h-0.04l-4.98-7.08c-0.23-0.08-0.48-0.13-0.73-0.13c-1.89,0-2.83,1.07-2.83,2.27c0,1.5,0.69,2.57,3.22,3.9l3.22,1.72
			c2.96,1.59,4.51,3.73,4.51,6.39c0,4.46-4.51,7.21-9.79,7.21C118.51,32.6,115.86,32.23,113.31,31.48z"/>
		<path class="st1" d="M81.97,17.8l2.62-1.16c2.38-1.04,4.18-2.09,4.7-3.41c0.01-0.01,0.01-0.01,0.01-0.02
			c0.56-1.29-0.21-2.91-0.21-2.91h-8.59v0.86c1.37,0.69,1.85,2.36,1.85,3.47c0,1.93-1.03,2.96-3.13,4.5l-3.26,2.36V0L64.91,3.86
			l2.45,2.1v26.21h8.59v-9.99l6.4,9.99h9.4L81.97,17.8z"/>
		<path class="st1" d="M146.81,32.06c-1.18,2.39-3.84,6.94-8.31,6.94c-4.46,0-6.34-3.14-6.34-3.14l6.34-4.63
			c0,0,4.53,3.58,7.19-0.03l-9.79-18.06l-2.92-2.1h15.07l-2.88,2.1l4.76,11.29l4.04-11.28l-3.3-2.1H159l-2.88,2.1L146.81,32.06z"/>
	</g>
</g>
</svg>
