<svg width="31" height="33" viewBox="0 0 31 33" fill="none" xmlns="http://www.w3.org/2000/svg">
<path fill-rule="evenodd" clip-rule="evenodd" d="M15.1837 0C6.79709 0 0 7.31767 0 16.3466C0 23.2684 4.00352 29.1877 9.64996 31.5694C9.51948 30.2732 9.39493 28.2937 9.70334 26.8826C9.97618 25.6055 11.4827 18.7539 11.4827 18.7539C11.4827 18.7539 11.026 17.777 11.026 16.3275C11.026 14.0543 12.2478 12.3558 13.7721 12.3558C15.0651 12.3558 15.6938 13.403 15.6938 14.6609C15.6938 16.0657 14.8634 18.1601 14.4364 20.1012C14.0805 21.7295 15.1956 23.0577 16.6843 23.0577C19.383 23.0577 21.4589 19.9927 21.4589 15.574C21.4589 11.6597 18.8492 8.92041 15.1185 8.92041C10.8006 8.92041 8.26208 12.4068 8.26208 16.0146C8.26208 17.4194 8.76622 18.9263 9.38899 19.7437C9.51355 19.9033 9.53134 20.0502 9.49575 20.2098C9.38306 20.727 9.12209 21.8381 9.07464 22.0616C9.0094 22.3617 8.85519 22.4255 8.56456 22.2787C6.6666 21.3272 5.48037 18.3453 5.48037 15.9444C5.48037 10.7849 8.96195 6.05336 15.5159 6.05336C20.7827 6.05336 24.8752 10.0953 24.8752 15.4974C24.8752 21.1293 21.5775 25.6629 16.9927 25.6629C15.4565 25.6629 14.0094 24.8009 13.5111 23.7856C13.5111 23.7856 12.7519 26.9081 12.5681 27.6743C12.2241 29.0919 11.2988 30.8734 10.682 31.9589C12.1055 32.4315 13.612 32.6869 15.1778 32.6869C23.5644 32.6869 30.3615 25.3692 30.3615 16.3402C30.3674 7.31767 23.5703 0 15.1837 0Z" fill="#EC9E85"/>
</svg>
