<svg width="20" height="20" viewBox="0 0 20 20" fill="none" xmlns="http://www.w3.org/2000/svg">
<path d="M8.43985 7.74679C8.65213 7.74679 8.7995 7.55102 8.7995 7.33874C8.7995 7.09144 8.86512 6.83177 9.02261 6.68339C9.15384 6.54737 9.39007 6.46081 9.6263 6.46081C9.82316 6.46081 10.0725 6.52264 10.23 6.67102C10.4269 6.8565 10.4531 7.09144 10.4531 7.25219C10.4531 7.49949 10.3744 7.68497 10.1644 7.87044C9.91502 8.08065 9.54756 8.17957 9.20634 8.30323C8.83887 8.43924 8.36642 8.62472 8.06457 8.93385C7.81522 9.19352 7.64461 9.53975 7.64461 9.99726C7.64461 10.6402 7.92021 11.0607 8.18268 11.308C8.49765 11.5924 8.97011 11.8149 9.56068 11.8149C10.1644 11.8149 10.6631 11.6047 10.9912 11.2956C11.1966 11.0943 11.3712 10.8202 11.473 10.4947C11.579 10.1557 11.2807 9.86124 10.9256 9.86124C10.5704 9.86124 10.3332 10.1906 10.1136 10.4697C10.1008 10.4861 10.0871 10.5017 10.0725 10.5166C9.94127 10.6526 9.77066 10.7021 9.5738 10.7021C9.37695 10.7021 9.25883 10.6402 9.18009 10.5784C9.04885 10.4795 8.95699 10.294 8.95699 10.0962C8.95699 9.9478 9.02261 9.77468 9.15384 9.65103C9.28508 9.52738 9.48194 9.45319 9.67879 9.379L10.0725 9.23062C10.5581 9.04514 10.8074 8.92149 10.9912 8.79783C11.503 8.45161 11.7655 7.94464 11.7655 7.27692C11.7655 6.68339 11.5686 6.22587 11.2012 5.89201C10.9124 5.63235 10.4137 5.34795 9.61318 5.34795C8.852 5.34795 8.36642 5.60762 8.07769 5.86728C7.80209 6.11459 7.48712 6.58446 7.48712 7.32638C7.48712 7.5651 7.69601 7.74679 7.93474 7.74679H8.43985ZM8.852 13.1627C8.852 13.5708 9.20634 13.9047 9.63942 13.9047C10.0725 13.9047 10.4269 13.5708 10.4269 13.1627C10.4269 12.7547 10.0725 12.4208 9.63942 12.4208C9.20634 12.4208 8.852 12.7547 8.852 13.1627Z" fill="#222222"/>
<mask id="path-2-inside-1_3102_690" fill="white">
<path fill-rule="evenodd" clip-rule="evenodd" d="M9 0C4.02944 0 0 4.02944 0 9V9.18301C0 14.1536 4.02943 18.183 9 18.183H10.2526C11.2959 18.183 12.2978 18.0055 13.2296 17.679L15.3711 18.9154C16.0378 19.3003 16.8711 18.8191 16.8711 18.0493V15.2819C18.3496 13.6783 19.2526 11.5361 19.2526 9.18301V9C19.2526 4.02944 15.2232 0 10.2526 0H9Z"/>
</mask>
<path d="M13.2296 17.679L13.7296 16.813L13.3321 16.5835L12.899 16.7352L13.2296 17.679ZM15.3711 18.9154L15.8711 18.0493H15.8711L15.3711 18.9154ZM16.8711 15.2819L16.1359 14.604L15.8711 14.8912V15.2819H16.8711ZM1 9C1 4.58172 4.58172 1 9 1V-1C3.47715 -1 -1 3.47715 -1 9H1ZM1 9.18301V9H-1V9.18301H1ZM9 17.183C4.58172 17.183 1 13.6013 1 9.18301H-1C-1 14.7059 3.47715 19.183 9 19.183V17.183ZM10.2526 17.183H9V19.183H10.2526V17.183ZM12.899 16.7352C12.0719 17.025 11.1818 17.183 10.2526 17.183V19.183C11.4101 19.183 12.5237 18.9859 13.5603 18.6227L12.899 16.7352ZM12.7296 18.545L14.8711 19.7814L15.8711 18.0493L13.7296 16.813L12.7296 18.545ZM14.8711 19.7814C16.2045 20.5512 17.8711 19.5889 17.8711 18.0493H15.8711H15.8711L14.8711 19.7814ZM17.8711 18.0493V15.2819H15.8711V18.0493H17.8711ZM18.2526 9.18301C18.2526 11.2752 17.4508 13.1778 16.1359 14.604L17.6063 15.9597C19.2483 14.1787 20.2526 11.797 20.2526 9.18301H18.2526ZM18.2526 9V9.18301H20.2526V9H18.2526ZM10.2526 1C14.6709 1 18.2526 4.58172 18.2526 9H20.2526C20.2526 3.47715 15.7755 -1 10.2526 -1V1ZM9 1H10.2526V-1H9V1Z" fill="#222222" mask="url(#path-2-inside-1_3102_690)"/>
</svg>
