<svg width="27" height="33" viewBox="0 0 27 33" fill="none" xmlns="http://www.w3.org/2000/svg">
<path d="M13.8559 0.0255416C15.5166 0 17.1595 0.0191562 18.8084 0C18.9092 2.08803 19.6032 4.20799 21.0207 5.68302C22.4383 7.19636 24.437 7.88598 26.3825 8.12224V13.6073C24.5557 13.5435 22.7229 13.1348 21.0682 12.2855C20.3446 11.9343 19.6743 11.481 19.016 11.0212C19.0101 14.9993 19.0338 18.9774 18.9923 22.9428C18.8914 24.8456 18.3102 26.7421 17.2782 28.3129C15.6234 30.9245 12.7527 32.6295 9.799 32.6805C7.99 32.7891 6.18101 32.2591 4.63891 31.2821C2.08852 29.6602 0.291384 26.6846 0.0304142 23.4983C0.000758506 22.8151 -0.0111037 22.1382 0.0126208 21.4741C0.238004 18.8817 1.43016 16.4041 3.28068 14.7184C5.37437 12.7517 8.31028 11.8194 11.0623 12.3685C11.0861 14.3863 11.0149 16.4041 11.0149 18.4219C9.75748 17.9877 8.29249 18.109 7.19523 18.9264C6.39453 19.4883 5.78362 20.3439 5.46927 21.3081C5.2083 21.9977 5.2854 22.764 5.29727 23.4983C5.59975 25.7332 7.59262 27.6105 9.72783 27.4126C11.1394 27.3934 12.4977 26.5122 13.2331 25.2224C13.4704 24.769 13.7373 24.3093 13.7551 23.7729C13.8796 21.3337 13.8322 18.9072 13.844 16.4744C13.844 10.9765 13.8203 5.50422 13.8559 0.0255416Z" fill="#EC9E85"/>
</svg>
