<svg width="31" height="23" viewBox="0 0 31 23" fill="none" xmlns="http://www.w3.org/2000/svg">
<path fill-rule="evenodd" clip-rule="evenodd" d="M12.0461 15.7401V6.55145L20.2489 11.1617L12.0461 15.7401ZM30.0649 4.96148C30.0649 4.96148 29.7684 2.70742 28.8609 1.71768C27.7043 0.415053 26.4114 0.408667 25.8182 0.332042C21.5716 -1.82689e-07 15.1956 0 15.1956 0H15.1837C15.1837 0 8.80774 -1.82689e-07 4.56105 0.332042C3.96793 0.408667 2.67494 0.415053 1.51837 1.71768C0.610907 2.70742 0.31435 4.96148 0.31435 4.96148C0.31435 4.96148 0 7.61144 0 10.255V12.7326C0 15.3761 0.302488 18.0261 0.302488 18.0261C0.302488 18.0261 0.599045 20.2801 1.50651 21.2699C2.66308 22.5725 4.18145 22.5342 4.8576 22.6683C7.28937 22.9173 15.1837 22.9939 15.1837 22.9939C15.1837 22.9939 21.5656 22.9812 25.8123 22.6555C26.4054 22.5789 27.6984 22.5725 28.855 21.2699C29.7625 20.2801 30.059 18.0261 30.059 18.0261C30.059 18.0261 30.3615 15.3825 30.3615 12.7326V10.255C30.3674 7.61144 30.0649 4.96148 30.0649 4.96148Z" fill="#EC9E85"/>
</svg>
